<svg width="30" height="30" viewBox="0 0 30 30" fill="none" xmlns="http://www.w3.org/2000/svg">
<path d="M14.9883 2.23535C7.74316 2.23242 1.875 8.09765 1.875 15.3369C1.875 21.0615 5.5459 25.9277 10.6582 27.7148C11.3467 27.8877 11.2412 27.3984 11.2412 27.0644V24.7939C7.26563 25.2598 7.10449 22.6289 6.83789 22.1894C6.29883 21.2695 5.02441 21.0351 5.40527 20.5957C6.31055 20.1299 7.2334 20.7129 8.30273 22.292C9.07617 23.4375 10.585 23.2441 11.3496 23.0537C11.5166 22.3652 11.874 21.75 12.3662 21.2725C8.24707 20.5342 6.53027 18.0205 6.53027 15.0322C6.53027 13.582 7.00781 12.249 7.94531 11.1738C7.34766 9.40137 8.00098 7.88379 8.08887 7.6582C9.79102 7.50586 11.5605 8.87695 11.6982 8.98535C12.665 8.72461 13.7695 8.58691 15.0059 8.58691C16.248 8.58691 17.3555 8.73047 18.3311 8.99414C18.6621 8.74219 20.3027 7.56445 21.8848 7.70801C21.9697 7.93359 22.6084 9.41601 22.0459 11.165C22.9951 12.2432 23.4785 13.5879 23.4785 15.041C23.4785 18.0352 21.75 20.5518 17.6191 21.2783C17.973 21.6263 18.2539 22.0412 18.4455 22.499C18.6372 22.9567 18.7357 23.4481 18.7354 23.9443V27.2402C18.7588 27.5039 18.7354 27.7646 19.1748 27.7646C24.3633 26.0156 28.0986 21.1143 28.0986 15.3398C28.0986 8.09765 22.2275 2.23535 14.9883 2.23535Z" fill="#BBBBBB"/>
</svg>
