<svg width="186" height="166" viewBox="0 0 186 166" fill="none" xmlns="http://www.w3.org/2000/svg">
<path d="M186 83C186 70.2098 170.348 58.9029 146.4 52.0667C152.476 27.8423 150.543 8.58896 139.501 2.19387C136.936 0.710566 134.021 0 130.828 0C120.278 0 106.724 7.78366 93.0015 21.1393C79.2763 7.78366 65.7222 0 55.1723 0C51.9793 0 49.0637 0.710566 46.4993 2.19387C35.4565 8.58896 33.5266 27.8423 39.6027 52.0667C15.6522 58.9029 0 70.2098 0 83C0 95.7902 15.6522 107.097 39.6027 113.933C33.5266 138.158 35.4595 157.411 46.4993 163.806C49.0637 165.289 51.9793 166 55.1694 166C65.7222 166 79.2763 158.216 93.0015 144.861C106.724 158.213 120.278 166 130.828 166C134.018 166 136.936 165.289 139.498 163.806C150.541 157.411 152.473 138.158 146.397 113.933C170.345 107.1 185.997 95.7931 185.997 83H186ZM102.244 23.9253C107.978 18.7471 113.502 14.7561 118.664 12.0589C123.285 9.64297 127.493 8.36987 130.828 8.36987C132.607 8.36987 134.077 8.72219 135.328 9.4446C137.683 10.8095 139.4 13.6488 140.433 17.8855C141.702 23.0963 141.788 30.0717 140.672 38.0597C140.141 41.879 139.353 45.867 138.314 50.0061C135.508 49.3666 132.61 48.7892 129.63 48.2681L130.016 49.8965C130.574 52.2384 130.901 54.6307 131.002 57.0288C132.713 57.3545 134.393 57.7039 136.036 58.071C135.219 60.6823 134.31 63.344 133.315 66.05C132.448 68.4097 131.518 70.7723 130.538 73.1409C130.069 72.2349 129.591 71.326 129.104 70.4171C128.007 73.6975 126.448 76.8092 124.489 79.6574C125.047 80.7706 125.596 81.8868 126.13 83C123.775 87.9147 121.187 92.8265 118.377 97.6998C115.577 102.564 112.632 107.272 109.56 111.784C104.142 112.198 98.6114 112.403 92.9985 112.403C87.3857 112.403 81.8525 112.198 76.4374 111.784C73.3654 107.272 70.4173 102.564 67.6197 97.6998C64.8133 92.8236 62.2223 87.9118 59.8703 83C62.2223 78.0853 64.8104 73.1735 67.6197 68.3002C70.4203 63.4358 73.3654 58.7283 76.4374 54.2162C81.8555 53.8017 87.3857 53.5974 92.9985 53.5974C93.8484 53.5974 94.6954 53.6003 95.5423 53.6122C98.2307 51.5042 101.182 49.7929 104.36 48.4991C104.661 48.3747 104.965 48.2593 105.269 48.1438C107.854 47.1697 110.516 46.4976 113.234 46.1246C113.499 46.0861 113.771 46.0535 114.036 46.0239C109.096 39.0634 103.973 32.7275 98.8209 27.1318C99.96 26.0245 101.102 24.9557 102.241 23.9253H102.244ZM133.318 99.95C134.316 102.656 135.222 105.318 136.039 107.929C133.374 108.524 130.621 109.069 127.791 109.554C125.324 109.978 122.819 110.357 120.281 110.685C122.096 107.834 123.872 104.897 125.607 101.886C127.34 98.8723 128.986 95.8583 130.541 92.8591C131.524 95.2277 132.451 97.5932 133.318 99.95ZM92.9985 132.861C90.1508 129.752 87.3267 126.416 84.5379 122.872C83.9359 122.105 83.3369 121.332 82.7408 120.547C86.1108 120.698 89.5311 120.775 92.9956 120.775C96.4601 120.775 99.8833 120.698 103.25 120.547C102.657 121.329 102.058 122.105 101.453 122.872C98.6645 126.416 95.8404 129.755 92.9926 132.861H92.9985ZM55.4586 92.8621C57.0138 95.8642 58.6575 98.8752 60.3927 101.886C62.1249 104.897 63.9044 107.834 65.7193 110.685C63.1843 110.357 60.6789 109.978 58.2089 109.554C55.3759 109.066 52.6256 108.524 49.9608 107.929C50.7782 105.318 51.6872 102.656 52.6817 99.95C53.5493 97.5932 54.4788 95.2276 55.4586 92.8621ZM52.6817 66.0471C51.6842 63.341 50.7782 60.6794 49.9608 58.068C52.6256 57.4729 55.3759 56.9282 58.2089 56.4426C60.6789 56.0192 63.1843 55.6403 65.7193 55.3116C63.9044 58.1628 62.1279 61.0998 60.3927 64.1108C58.6604 67.1218 57.0167 70.1328 55.4586 73.135C54.4759 70.7694 53.5493 68.4038 52.6817 66.0471ZM92.9985 33.136C95.8463 36.2448 98.6733 39.5844 101.462 43.1284C102.064 43.8952 102.66 44.6679 103.256 45.4496C99.8862 45.2986 96.466 45.2216 93.0015 45.2216C89.537 45.2216 86.1138 45.2986 82.7467 45.4496C83.3398 44.6679 83.9389 43.8922 84.5438 43.1254C87.3326 39.5815 90.1567 36.2418 93.0044 33.136H92.9985ZM45.3248 38.0567C44.2122 30.0688 44.2949 23.0934 45.5667 17.8826C46.5996 13.6458 48.3171 10.8065 50.672 9.44164C51.9203 8.71923 53.3929 8.36691 55.1723 8.36691C58.5099 8.36691 62.7181 9.64001 67.3394 12.0559C72.5007 14.7502 78.025 18.7412 83.7589 23.9224C84.9009 24.9527 86.04 26.0215 87.1762 27.1288C81.9765 32.7719 76.8063 39.1729 71.8279 46.2045C63.264 47.0158 55.1546 48.3037 47.6826 50.0001C46.6468 45.8641 45.8589 41.873 45.3248 38.0538V38.0567ZM30.369 101.948C22.9176 98.9226 16.9389 95.3638 13.076 91.6541C9.93609 88.6372 8.34254 85.7238 8.34254 82.997C8.34254 80.2702 9.93609 77.3569 13.076 74.34C16.9359 70.6332 22.9176 67.0715 30.369 64.0457C33.9338 62.5979 37.7731 61.2863 41.8632 60.1198C44.1325 67.4623 47.0747 75.1512 50.6573 82.997C47.0747 90.8429 44.1325 98.5318 41.8632 105.874C37.7731 104.708 33.9338 103.396 30.369 101.948ZM83.7559 142.072C78.0191 147.25 72.4978 151.241 67.3335 153.938C62.7122 156.354 58.507 157.627 55.1694 157.627C53.3899 157.627 51.9203 157.275 50.6691 156.552C48.3141 155.188 46.5966 152.348 45.5638 148.112C44.2919 142.901 44.2093 135.925 45.3218 127.937C45.853 124.118 46.6409 120.13 47.6797 115.991C55.1546 117.687 63.2611 118.978 71.8249 119.787C76.8033 126.821 81.9735 133.219 87.1732 138.862C86.0371 139.97 84.895 141.038 83.7559 142.069V142.072ZM140.672 127.937C141.785 135.925 141.702 142.901 140.433 148.112C139.397 152.348 137.683 155.188 135.328 156.552C134.08 157.275 132.607 157.627 130.828 157.627C127.493 157.627 123.285 156.354 118.664 153.938C113.502 151.244 107.978 147.253 102.244 142.072C101.102 141.041 99.9629 139.973 98.8239 138.865C104.027 133.222 109.194 126.821 114.175 119.79C122.739 118.978 130.845 117.69 138.317 115.994C139.356 120.13 140.141 124.121 140.675 127.94L140.672 127.937ZM172.921 91.6541C169.061 95.3609 163.079 98.9226 155.628 101.948C152.063 103.396 148.224 104.708 144.134 105.871C141.865 98.5288 138.925 90.8429 135.343 82.997C138.925 75.1512 141.865 67.4623 144.134 60.1227C148.224 61.2893 152.063 62.5979 155.628 64.0457C163.079 67.0715 169.058 70.6302 172.921 74.34C176.064 77.3569 177.655 80.2702 177.655 82.997C177.655 85.7238 176.064 88.6372 172.921 91.6541ZM102.87 53.8076C100.06 55.3057 97.4221 57.242 95.0583 59.6165C93.9753 60.703 92.9838 61.8459 92.0867 63.0361C90.3279 62.1775 88.4156 61.7482 86.5004 61.7482C83.2306 61.7482 79.9609 63.0005 77.4643 65.5053C74.9707 68.0071 73.7225 71.2905 73.7225 74.5709H86.5033L102.339 90.458V103.278C105.608 103.278 108.881 102.025 111.375 99.5236C115.329 95.5563 116.149 89.6349 113.836 84.8563C115.022 83.9533 116.161 82.9585 117.247 81.872C119.236 79.8765 120.918 77.6885 122.29 75.3673C124.185 72.1639 125.492 68.7058 126.209 65.1559C126.802 62.2308 126.994 59.2375 126.791 56.2709C126.667 54.453 126.392 52.647 125.967 50.8647C123.45 50.2607 120.874 49.9587 118.298 49.9587C117.796 49.9587 117.297 49.9705 116.796 49.9913C113.753 50.1304 110.728 50.69 107.813 51.6729C106.122 52.2414 104.472 52.9549 102.873 53.8046L102.87 53.8076ZM115.4 68.7087C114.402 69.7095 113.098 70.2098 111.791 70.2098C110.483 70.2098 109.176 69.7095 108.179 68.7087C106.184 66.7073 106.184 63.4654 108.179 61.4669C109.176 60.4662 110.48 59.9658 111.791 59.9658C112.384 59.9658 112.974 60.0695 113.538 60.2737C114.216 60.5224 114.854 60.9192 115.397 61.4669C116.548 62.6216 117.035 64.1907 116.855 65.6948C116.725 66.7961 116.238 67.862 115.397 68.7087H115.4ZM93.512 87.5239C93.9488 88.5158 94.1907 89.6112 94.1907 90.7688C94.1907 92.9864 93.2966 94.9908 91.8476 96.4415C90.3987 97.8923 88.4008 98.7923 86.1935 98.7923H78.1962V90.7688C78.1962 86.3367 81.7758 82.7454 86.1935 82.7454C87.3444 82.7454 88.4392 82.9882 89.4278 83.4263C91.2456 84.2346 92.7093 85.7001 93.512 87.5239Z" fill="url(#paint0_linear_9_3)"/>
<defs>
<linearGradient id="paint0_linear_9_3" x1="-5.93746" y1="83" x2="181.957" y2="83" gradientUnits="userSpaceOnUse">
<stop stop-color="#FE6F76"/>
<stop offset="1" stop-color="#7029FF"/>
</linearGradient>
</defs>
</svg>
